<?xml version="1.0" encoding="UTF-8"?>
<svg xmlns="http://www.w3.org/2000/svg" xmlns:xlink="http://www.w3.org/1999/xlink" version="1.1" id="Layer_1" x="0px" y="0px" viewBox="0 0 992.3 356.4" style="enable-background:new 0 0 992.3 356.4;" xml:space="preserve">
<style type="text/css">
	.st0{fill:#83BFD6;}
	.st1{fill:#FF0043;}
	.st2{fill:#ffffff;}
</style>
<g>
	<g class="st2">
		<g>
			<path d="M572.5,94.5l1.9-1.9H597l1.9,1.9c-3.8,26.5-24.6,41.6-54.8,41.6c-41.6,0-64.3-28.4-64.3-68.1c0-39.7,22.7-68.1,64.3-68.1     c30.2,0,51,15.1,54.8,39.7l-1.9,1.9h-22.7l-1.9-1.9c-3.8-11.3-13.2-17-28.4-17c-26.5,0-37.8,18.9-37.8,45.4s11.3,45.4,37.8,45.4     C559.2,113.4,568.7,107.8,572.5,94.5z"></path>
			<path d="M669,136.1c-7.6,18.9-15.1,30.2-41.6,30.2H618l-1.9-1.9v-18.9l1.9-1.9h9.5c9.5,0,11.3-1.9,13.2-7.6v-1.9l-30.2-73.7V41.6     l1.9-1.9h17l1.9,1.9l22.7,64.3h1.9l22.7-64.3l1.9-1.9h17l1.9,1.9v18.9L669,136.1z"></path>
			<path d="M769.2,136.1c-8.7,0-18.7-2.6-24.6-9.5h-1.9l-1.9,5.7l-1.9,1.9h-20.8l-1.9-1.9V3.8l1.9-1.9h22.7l1.9,1.9v43.5h1.9     c5.9-6.6,15.7-9.5,24.6-9.5c22.7,0,41.6,18.9,41.6,49.2S791.9,136.1,769.2,136.1z M763.6,60.5c-15.1,0-20.8,11.3-20.8,26.5     c0,15.1,5.7,26.5,20.8,26.5c15.1,0,20.8-11.3,20.8-26.5C784.4,71.8,778.7,60.5,763.6,60.5z"></path>
			<path d="M912.9,94.5l-1.9,1.9h-58.6l-1.9,1.9c0,3.8,3.8,15.1,18.9,15.1c5.7,0,11.3-1.9,13.2-5.7l1.9-1.9h22.7l1.9,1.9     c-1.9,11.3-11.3,28.4-39.7,28.4c-32.1,0-47.3-22.7-47.3-49.2c0-26.5,15.1-49.2,45.4-49.2c30.2,0,45.4,22.7,45.4,49.2V94.5z      M884.6,75.6c0-1.9-1.9-15.1-17-15.1c-15.1,0-17,13.2-17,15.1l1.9,1.9h30.2L884.6,75.6z"></path>
			<path d="M990.4,62.4h-13.2c-15.1,0-20.8,7.6-20.8,24.6v45.4l-1.9,1.9h-22.7l-1.9-1.9V41.6l1.9-1.9h20.8l1.9,1.9l1.9,5.7h1.9     c4-5.5,11.9-7.6,20.8-7.6h11.3l1.9,1.9v18.9L990.4,62.4z"></path>
		</g>
		<g>
			<path d="M551.9,283.6l-1.9,1.9h-24.6l-1.9-1.9L482,173.9V155l1.9-1.9h17l1.9,1.9l34,92.6h1.9l34-92.6l1.9-1.9h17l1.9,1.9v18.9     L551.9,283.6z"></path>
			<path d="M676.7,285.5h-20.8l-1.9-1.9l-1.9-3.8h-1.9c-5.5,4.9-12.9,7.6-20.8,7.6c-21,0-34-11.3-34-30.2     c0-28.2,26.5-32.1,41.6-32.1c4.7,0,9.1,0.6,13.2,1.9l1.9-1.9v-1.9c0-9.5-1.9-11.3-13.2-11.3c-5.9,0-11.2-0.2-13.2,5.7l-1.9,1.9     h-22.7l-1.9-1.9c0-11.3,9.5-28.4,39.7-28.4c30.2,0,39.7,15.3,39.7,43.5v51L676.7,285.5z M650.3,245.8c-2.5-1.3-7.8-1.9-11.3-1.9     c-11.3,0-17,3.8-17,11.3c0,5.9,3.6,9.5,13.2,9.5c9.6,0,17-5.7,17-13.2v-3.8L650.3,245.8z"></path>
			<path d="M724,285.5h-22.7l-1.9-1.9V155l1.9-1.9H724l1.9,1.9v128.6L724,285.5z"></path>
			<path d="M773.2,285.5h-22.7l-1.9-1.9V155l1.9-1.9h22.7l1.9,1.9v128.6L773.2,285.5z"></path>
			<path d="M882.8,245.8l-1.9,1.9h-58.6l-1.9,1.9c0,3.8,3.8,15.1,18.9,15.1c5.7,0,11.3-1.9,13.2-5.7l1.9-1.9h22.7l1.9,1.9     c-1.9,11.3-11.3,28.4-39.7,28.4c-32.1,0-47.3-22.7-47.3-49.2c0-26.5,15.1-49.2,45.4-49.2c30.2,0,45.4,22.7,45.4,49.2V245.8z      M854.4,226.9c0-1.9-1.9-15.1-17-15.1c-15.1,0-17,13.2-17,15.1l1.9,1.9h30.2L854.4,226.9z"></path>
			<path d="M950.9,287.4c-7.6,18.9-15.1,30.2-41.6,30.2h-9.5l-1.9-1.9v-18.9l1.9-1.9h9.5c9.5,0,11.3-1.9,13.2-7.6v-1.9l-30.2-73.7     v-18.9l1.9-1.9h17l1.9,1.9l22.7,64.3h1.9l22.7-64.3l1.9-1.9h17l1.9,1.9v18.9L950.9,287.4z"></path>
		</g>
	</g>
	<g>
		<g>
			<path class="st0" d="M141.7,2.1C63.5,2.1,0,65.5,0,143.8c0,78.3,63.5,141.7,141.7,141.7h141.7V2.1H141.7z"></path>
		</g>
		<g>
			<polygon class="st1" points="283.5,356.4 141.7,72.9 425.2,72.9    "></polygon>
		</g>
	</g>
</g>
</svg>
